<mxfile host="65bd71144e">
    <diagram id="xg9SMwyKc_W8HEiQ5CtN" name="Страница 1">
        <mxGraphModel dx="1204" dy="800" grid="1" gridSize="10" guides="1" tooltips="1" connect="1" arrows="1" fold="1" page="1" pageScale="1" pageWidth="827" pageHeight="1169" background="none" math="0" shadow="0">
            <root>
                <mxCell id="0"/>
                <mxCell id="1" parent="0"/>
                <mxCell id="3" value="&lt;p style=&quot;margin: 0px ; margin-top: 4px ; text-align: center&quot;&gt;&lt;i&gt;&amp;lt;&amp;lt;Interface&amp;gt;&amp;gt;&lt;/i&gt;&lt;br&gt;&lt;b&gt;RoadTransport&lt;/b&gt;&lt;/p&gt;&lt;p style=&quot;margin: 0px ; margin-left: 4px&quot;&gt;&lt;br&gt;&lt;/p&gt;&lt;hr size=&quot;1&quot;&gt;&lt;p style=&quot;margin: 0px ; margin-left: 4px&quot;&gt;+ RoadDelivery(): void;&lt;br&gt;&lt;/p&gt;" style="verticalAlign=top;align=left;overflow=fill;fontSize=12;fontFamily=Helvetica;html=1;fontColor=#f0f0f0;" vertex="1" parent="1">
                    <mxGeometry x="270" y="330" width="190" height="110" as="geometry"/>
                </mxCell>
                <mxCell id="4" value="&lt;p style=&quot;margin: 0px ; margin-top: 4px ; text-align: center&quot;&gt;&lt;i&gt;&amp;lt;&amp;lt;Interface&amp;gt;&amp;gt;&lt;/i&gt;&lt;br&gt;&lt;b&gt;AirTransport&lt;/b&gt;&lt;/p&gt;&lt;p style=&quot;margin: 0px ; margin-left: 4px&quot;&gt;&lt;br&gt;&lt;/p&gt;&lt;hr size=&quot;1&quot;&gt;&lt;p style=&quot;margin: 0px ; margin-left: 4px&quot;&gt;+ AirDelivery(): void;&lt;br&gt;&lt;/p&gt;" style="verticalAlign=top;align=left;overflow=fill;fontSize=12;fontFamily=Helvetica;html=1;fontColor=#f0f0f0;" vertex="1" parent="1">
                    <mxGeometry x="40" y="330" width="190" height="110" as="geometry"/>
                </mxCell>
                <mxCell id="13" value="TruckA" style="swimlane;fontStyle=1;align=center;verticalAlign=top;childLayout=stackLayout;horizontal=1;startSize=26;horizontalStack=0;resizeParent=1;resizeParentMax=0;resizeLast=0;collapsible=1;marginBottom=0;fontFamily=Helvetica;fontColor=#f0f0f0;html=1;" vertex="1" parent="1">
                    <mxGeometry x="290" y="180" width="160" height="52" as="geometry"/>
                </mxCell>
                <mxCell id="16" value="+ RoadDelivery(): void" style="text;strokeColor=none;fillColor=none;align=left;verticalAlign=top;spacingLeft=4;spacingRight=4;overflow=hidden;rotatable=0;points=[[0,0.5],[1,0.5]];portConstraint=eastwest;" vertex="1" parent="13">
                    <mxGeometry y="26" width="160" height="26" as="geometry"/>
                </mxCell>
                <mxCell id="17" value="PlanA" style="swimlane;fontStyle=1;align=center;verticalAlign=top;childLayout=stackLayout;horizontal=1;startSize=26;horizontalStack=0;resizeParent=1;resizeParentMax=0;resizeLast=0;collapsible=1;marginBottom=0;fontFamily=Helvetica;fontColor=#f0f0f0;html=1;" vertex="1" parent="1">
                    <mxGeometry x="60" y="180" width="160" height="52" as="geometry"/>
                </mxCell>
                <mxCell id="20" value="+ AirDelivery(): void;" style="text;strokeColor=none;fillColor=none;align=left;verticalAlign=top;spacingLeft=4;spacingRight=4;overflow=hidden;rotatable=0;points=[[0,0.5],[1,0.5]];portConstraint=eastwest;" vertex="1" parent="17">
                    <mxGeometry y="26" width="160" height="26" as="geometry"/>
                </mxCell>
                <mxCell id="21" value="PlanB" style="swimlane;fontStyle=1;align=center;verticalAlign=top;childLayout=stackLayout;horizontal=1;startSize=26;horizontalStack=0;resizeParent=1;resizeParentMax=0;resizeLast=0;collapsible=1;marginBottom=0;fontFamily=Helvetica;fontColor=#f0f0f0;html=1;" vertex="1" parent="1">
                    <mxGeometry x="55" y="500" width="160" height="52" as="geometry"/>
                </mxCell>
                <mxCell id="22" value="+ AirDelivery(): void;" style="text;strokeColor=none;fillColor=none;align=left;verticalAlign=top;spacingLeft=4;spacingRight=4;overflow=hidden;rotatable=0;points=[[0,0.5],[1,0.5]];portConstraint=eastwest;" vertex="1" parent="21">
                    <mxGeometry y="26" width="160" height="26" as="geometry"/>
                </mxCell>
                <mxCell id="23" value="TruckB" style="swimlane;fontStyle=1;align=center;verticalAlign=top;childLayout=stackLayout;horizontal=1;startSize=26;horizontalStack=0;resizeParent=1;resizeParentMax=0;resizeLast=0;collapsible=1;marginBottom=0;fontFamily=Helvetica;fontColor=#f0f0f0;html=1;" vertex="1" parent="1">
                    <mxGeometry x="290" y="500" width="160" height="52" as="geometry">
                        <mxRectangle x="290" y="500" width="70" height="26" as="alternateBounds"/>
                    </mxGeometry>
                </mxCell>
                <mxCell id="24" value="+ RoadDelivery(): void" style="text;strokeColor=none;fillColor=none;align=left;verticalAlign=top;spacingLeft=4;spacingRight=4;overflow=hidden;rotatable=0;points=[[0,0.5],[1,0.5]];portConstraint=eastwest;" vertex="1" parent="23">
                    <mxGeometry y="26" width="160" height="26" as="geometry"/>
                </mxCell>
                <mxCell id="25" value="&lt;p style=&quot;margin: 0px ; margin-top: 4px ; text-align: center&quot;&gt;&lt;i&gt;&amp;lt;&amp;lt;Interface&amp;gt;&amp;gt;&lt;/i&gt;&lt;br&gt;&lt;b&gt;Logistic&lt;/b&gt;&lt;/p&gt;&lt;p style=&quot;margin: 0px ; margin-left: 4px&quot;&gt;&lt;br&gt;&lt;/p&gt;&lt;hr size=&quot;1&quot;&gt;&lt;p style=&quot;margin: 0px ; margin-left: 4px&quot;&gt;+createPlane(): AirTransport;&lt;br style=&quot;padding: 0px ; margin: 0px&quot;&gt;+createTruck(): RoadTransport;&lt;br&gt;&lt;/p&gt;" style="verticalAlign=top;align=left;overflow=fill;fontSize=12;fontFamily=Helvetica;html=1;fontColor=#f0f0f0;" vertex="1" parent="1">
                    <mxGeometry x="550" y="310" width="190" height="140" as="geometry"/>
                </mxCell>
                <mxCell id="30" value="LogisticA" style="swimlane;fontStyle=1;align=center;verticalAlign=top;childLayout=stackLayout;horizontal=1;startSize=26;horizontalStack=0;resizeParent=1;resizeParentMax=0;resizeLast=0;collapsible=1;marginBottom=0;fontFamily=Helvetica;fontColor=#f0f0f0;html=1;" vertex="1" parent="1">
                    <mxGeometry x="565" y="161" width="180" height="70" as="geometry"/>
                </mxCell>
                <mxCell id="33" value="+createPlane(): AirTransport;&#10;+createTruck(): RoadTransport;" style="text;strokeColor=none;fillColor=none;align=left;verticalAlign=top;spacingLeft=4;spacingRight=4;overflow=hidden;rotatable=0;points=[[0,0.5],[1,0.5]];portConstraint=eastwest;" vertex="1" parent="30">
                    <mxGeometry y="26" width="180" height="44" as="geometry"/>
                </mxCell>
                <mxCell id="34" value="LogisticB" style="swimlane;fontStyle=1;align=center;verticalAlign=top;childLayout=stackLayout;horizontal=1;startSize=26;horizontalStack=0;resizeParent=1;resizeParentMax=0;resizeLast=0;collapsible=1;marginBottom=0;fontFamily=Helvetica;fontColor=#f0f0f0;html=1;" vertex="1" parent="1">
                    <mxGeometry x="555" y="491" width="180" height="70" as="geometry"/>
                </mxCell>
                <mxCell id="35" value="+createPlane(): AirTransport;&#10;+createTruck(): RoadTransport;" style="text;strokeColor=none;fillColor=none;align=left;verticalAlign=top;spacingLeft=4;spacingRight=4;overflow=hidden;rotatable=0;points=[[0,0.5],[1,0.5]];portConstraint=eastwest;" vertex="1" parent="34">
                    <mxGeometry y="26" width="180" height="44" as="geometry"/>
                </mxCell>
                <mxCell id="36" value="" style="endArrow=block;dashed=1;endFill=0;endSize=12;html=1;fontFamily=Helvetica;fontColor=#f0f0f0;" edge="1" parent="1">
                    <mxGeometry width="160" relative="1" as="geometry">
                        <mxPoint x="644.5" y="230" as="sourcePoint"/>
                        <mxPoint x="645" y="310" as="targetPoint"/>
                    </mxGeometry>
                </mxCell>
                <mxCell id="38" value="Extends" style="endArrow=block;endSize=16;endFill=0;html=1;fontFamily=Helvetica;fontColor=#f0f0f0;entryX=0.5;entryY=0;entryDx=0;entryDy=0;" edge="1" parent="1" target="4">
                    <mxGeometry width="160" relative="1" as="geometry">
                        <mxPoint x="135" y="233" as="sourcePoint"/>
                        <mxPoint x="220" y="290" as="targetPoint"/>
                    </mxGeometry>
                </mxCell>
                <mxCell id="39" value="Extends" style="endArrow=block;endSize=16;endFill=0;html=1;fontFamily=Helvetica;fontColor=#f0f0f0;entryX=0.5;entryY=1;entryDx=0;entryDy=0;exitX=0.5;exitY=0;exitDx=0;exitDy=0;" edge="1" parent="1" source="21" target="4">
                    <mxGeometry width="160" relative="1" as="geometry">
                        <mxPoint x="135" y="490" as="sourcePoint"/>
                        <mxPoint x="220" y="470" as="targetPoint"/>
                    </mxGeometry>
                </mxCell>
                <mxCell id="40" value="return" style="html=1;verticalAlign=bottom;endArrow=open;dashed=1;endSize=8;fontFamily=Helvetica;fontColor=#f0f0f0;entryX=0.644;entryY=-0.096;entryDx=0;entryDy=0;entryPerimeter=0;" edge="1" parent="1" target="17">
                    <mxGeometry x="0.9188" y="1" relative="1" as="geometry">
                        <mxPoint x="660" y="160" as="sourcePoint"/>
                        <mxPoint x="110" y="120" as="targetPoint"/>
                        <Array as="points">
                            <mxPoint x="660" y="110"/>
                            <mxPoint x="370" y="110"/>
                            <mxPoint x="160" y="110"/>
                        </Array>
                        <mxPoint as="offset"/>
                    </mxGeometry>
                </mxCell>
                <mxCell id="42" value="return" style="html=1;verticalAlign=bottom;endArrow=open;dashed=1;endSize=8;fontFamily=Helvetica;fontColor=#f0f0f0;entryX=0.469;entryY=0.923;entryDx=0;entryDy=0;entryPerimeter=0;" edge="1" parent="1" target="22">
                    <mxGeometry x="0.8529" relative="1" as="geometry">
                        <mxPoint x="640" y="560" as="sourcePoint"/>
                        <mxPoint x="50" y="640" as="targetPoint"/>
                        <Array as="points">
                            <mxPoint x="640" y="640"/>
                            <mxPoint x="130" y="640"/>
                        </Array>
                        <mxPoint as="offset"/>
                    </mxGeometry>
                </mxCell>
                <mxCell id="43" value="return" style="html=1;verticalAlign=bottom;endArrow=open;dashed=1;endSize=8;fontFamily=Helvetica;fontColor=#f0f0f0;entryX=0.431;entryY=1.038;entryDx=0;entryDy=0;entryPerimeter=0;" edge="1" parent="1" target="24">
                    <mxGeometry relative="1" as="geometry">
                        <mxPoint x="360" y="640" as="sourcePoint"/>
                        <mxPoint x="300" y="585" as="targetPoint"/>
                    </mxGeometry>
                </mxCell>
                <mxCell id="44" value="return" style="html=1;verticalAlign=bottom;endArrow=open;dashed=1;endSize=8;fontFamily=Helvetica;fontColor=#f0f0f0;entryX=0.444;entryY=0;entryDx=0;entryDy=0;entryPerimeter=0;" edge="1" parent="1" target="13">
                    <mxGeometry relative="1" as="geometry">
                        <mxPoint x="360" y="110" as="sourcePoint"/>
                        <mxPoint x="270" y="140" as="targetPoint"/>
                    </mxGeometry>
                </mxCell>
                <mxCell id="47" value="" style="endArrow=block;dashed=1;endFill=0;endSize=12;html=1;fontFamily=Helvetica;fontColor=#f0f0f0;entryX=0.537;entryY=1.021;entryDx=0;entryDy=0;entryPerimeter=0;exitX=0.539;exitY=-0.014;exitDx=0;exitDy=0;exitPerimeter=0;" edge="1" parent="1" source="34" target="25">
                    <mxGeometry width="160" relative="1" as="geometry">
                        <mxPoint x="500" y="470" as="sourcePoint"/>
                        <mxPoint x="660" y="470" as="targetPoint"/>
                    </mxGeometry>
                </mxCell>
                <mxCell id="48" value="Extends" style="endArrow=block;endSize=16;endFill=0;html=1;fontFamily=Helvetica;fontColor=#f0f0f0;entryX=0.5;entryY=0;entryDx=0;entryDy=0;" edge="1" parent="1">
                    <mxGeometry width="160" relative="1" as="geometry">
                        <mxPoint x="364.5" y="233" as="sourcePoint"/>
                        <mxPoint x="364.5" y="330" as="targetPoint"/>
                    </mxGeometry>
                </mxCell>
                <mxCell id="49" value="Extends" style="endArrow=block;endSize=16;endFill=0;html=1;fontFamily=Helvetica;fontColor=#f0f0f0;entryX=0.5;entryY=1;entryDx=0;entryDy=0;exitX=0.5;exitY=0;exitDx=0;exitDy=0;" edge="1" parent="1">
                    <mxGeometry width="160" relative="1" as="geometry">
                        <mxPoint x="364.5" y="500" as="sourcePoint"/>
                        <mxPoint x="364.5" y="440" as="targetPoint"/>
                    </mxGeometry>
                </mxCell>
            </root>
        </mxGraphModel>
    </diagram>
</mxfile>